<svg id="visual" viewBox="0 0 960 540" width="960" height="540" xmlns="http://www.w3.org/2000/svg" xmlns:xlink="http://www.w3.org/1999/xlink" version="1.1"><rect x="0" y="0" width="960" height="540" fill="#001220"></rect><defs><linearGradient id="grad1_0" x1="43.8%" y1="100%" x2="100%" y2="0%"><stop offset="14.444444444444446%" stop-color="#001220" stop-opacity="1"></stop><stop offset="85.55555555555554%" stop-color="#001220" stop-opacity="1"></stop></linearGradient></defs><defs><linearGradient id="grad2_0" x1="0%" y1="100%" x2="56.3%" y2="0%"><stop offset="14.444444444444446%" stop-color="#001220" stop-opacity="1"></stop><stop offset="85.55555555555554%" stop-color="#001220" stop-opacity="1"></stop></linearGradient></defs><g transform="translate(960, 540)"><path d="M-324 0C-304.4 -28.7 -284.7 -57.4 -273.9 -89C-263.1 -120.6 -261.1 -154.9 -243.5 -176.9C-226 -198.9 -192.9 -208.5 -168.1 -231.4C-143.3 -254.3 -126.8 -290.5 -100.1 -308.1C-73.5 -325.8 -36.7 -324.9 0 -324L0 0Z" fill="#FBAE3C"></path></g><g transform="translate(0, 0)"><path d="M324 0C300.2 26.5 276.4 52.9 271.1 88.1C265.7 123.2 278.8 167.1 262.1 190.4C245.4 213.8 198.9 216.7 166.9 229.8C134.9 242.8 117.5 266 92.1 283.4C66.7 300.8 33.3 312.4 0 324L0 0Z" fill="#FBAE3C"></path></g></svg>